<?xml version="1.0" standalone="no"?>
<!DOCTYPE svg PUBLIC "-//W3C//DTD SVG 20010904//EN"
 "http://www.w3.org/TR/2001/REC-SVG-20010904/DTD/svg10.dtd">
<svg version="1.0" xmlns="http://www.w3.org/2000/svg"
 width="587.000000pt" height="600.000000pt" viewBox="0 0 587.000000 600.000000"
 preserveAspectRatio="xMidYMid meet">

<g transform="translate(0.000000,600.000000) scale(0.100000,-0.100000)"
fill="#000000" stroke="none">
<path d="M835 5296 c-60 -28 -97 -66 -124 -126 -20 -45 -21 -54 -21 -2100 l0
-2055 24 -50 c28 -60 66 -97 126 -124 44 -20 60 -21 1150 -21 l1105 0 -2 857
-3 858 -300 3 -300 2 2 348 3 347 297 2 298 3 3 407 c3 390 4 411 26 483 72
239 259 419 499 481 68 17 113 19 479 19 l403 0 0 -325 0 -325 -248 0 c-287 0
-325 -7 -384 -67 -66 -68 -68 -79 -68 -398 l0 -285 348 2 347 2 -3 -35 c-2
-19 -21 -158 -43 -309 -22 -151 -42 -294 -46 -317 l-6 -43 -298 0 -299 0 0
-855 0 -855 598 0 c579 0 598 1 642 21 55 25 95 62 123 114 l22 40 3 2060 c2
1893 1 2064 -14 2104 -23 60 -70 110 -129 137 l-50 24 -2055 0 -2055 0 -50
-24z"/>
</g>
</svg>
