<?xml version="1.0" standalone="no"?>
<!DOCTYPE svg PUBLIC "-//W3C//DTD SVG 20010904//EN"
 "http://www.w3.org/TR/2001/REC-SVG-20010904/DTD/svg10.dtd">
<svg version="1.0" xmlns="http://www.w3.org/2000/svg"
 width="500.000000pt" height="500.000000pt" viewBox="0 0 500.000000 500.000000"
 preserveAspectRatio="xMidYMid meet">

<g transform="translate(0.000000,500.000000) scale(0.100000,-0.100000)"
fill="#000000" stroke="none">
<path d="M1335 4784 c-92 -12 -180 -27 -194 -35 -9 -4 -42 -15 -73 -24 -80
-22 -231 -94 -305 -146 -225 -159 -408 -401 -483 -634 -13 -38 -29 -89 -36
-112 -32 -100 -35 -250 -31 -1408 4 -1141 6 -1211 37 -1280 5 -11 16 -46 25
-78 23 -85 90 -222 153 -312 109 -157 218 -259 397 -373 46 -29 191 -93 244
-107 31 -9 63 -20 71 -24 62 -34 153 -36 1360 -36 1207 0 1298 2 1360 36 8 4
41 15 73 24 117 32 326 148 420 234 113 102 187 191 264 316 32 51 94 191 108
242 9 32 20 67 25 78 31 69 33 139 37 1275 5 1293 4 1305 -58 1495 -71 214
-143 335 -299 499 -128 134 -344 268 -511 317 -196 57 -96 53 -1374 55 -649 1
-1193 0 -1210 -2z m2317 -415 c136 -28 187 -43 248 -73 215 -105 355 -266 441
-506 l24 -65 3 -1179 c3 -1325 5 -1282 -67 -1432 -55 -116 -92 -167 -181 -254
-116 -114 -247 -185 -395 -215 -71 -14 -206 -15 -1260 -13 -1309 4 -1207 -1
-1361 72 -100 47 -157 87 -235 165 -131 132 -199 268 -238 477 -16 85 -16
2223 0 2308 39 209 107 345 238 477 134 133 249 191 471 237 66 14 2244 15
2312 1z"/>
<path d="M3573 3837 c-135 -50 -174 -233 -72 -336 127 -127 349 -36 349 143 0
142 -144 242 -277 193z"/>
<path d="M2360 3539 c-85 -11 -225 -57 -315 -101 -258 -130 -448 -359 -535
-648 -69 -229 -45 -516 60 -729 234 -472 750 -695 1253 -543 108 33 260 115
346 187 294 245 427 613 360 1000 -23 133 -93 294 -175 405 -160 217 -389 368
-634 416 -98 19 -266 25 -360 13z m229 -408 c20 -5 66 -17 103 -26 178 -45
344 -207 414 -405 23 -64 27 -92 27 -190 0 -100 -3 -126 -27 -195 -73 -214
-270 -389 -471 -420 -69 -10 -210 -8 -275 5 -93 17 -194 76 -285 165 -88 86
-132 157 -166 265 -26 83 -28 256 -4 345 41 156 160 306 302 382 126 66 288
98 382 74z"/>
</g>
</svg>
