<?xml version="1.0" standalone="no"?>
<!DOCTYPE svg PUBLIC "-//W3C//DTD SVG 20010904//EN"
 "http://www.w3.org/TR/2001/REC-SVG-20010904/DTD/svg10.dtd">
<svg version="1.0" xmlns="http://www.w3.org/2000/svg"
 width="1243.000000pt" height="201.000000pt" viewBox="0 0 1243.000000 201.000000"
 preserveAspectRatio="xMidYMid meet">

<g transform="translate(0.000000,201.000000) scale(0.100000,-0.100000)"
fill="#ffffff" stroke="none">
<path d="M1700 1973 c-8 -3 -40 -29 -70 -58 -66 -62 -98 -71 -184 -55 -53 10
-69 9 -99 -4 -116 -48 -93 -226 31 -243 54 -7 95 10 132 57 16 21 47 46 67 55
33 16 46 17 109 6 104 -17 163 12 184 90 26 97 -75 187 -170 152z m78 -85 c21
-21 15 -67 -12 -79 -34 -16 -66 3 -66 39 0 33 16 52 45 52 12 0 26 -5 33 -12z
m-339 -130 c14 -24 14 -28 -3 -47 -34 -37 -86 -22 -86 25 0 55 63 70 89 22z"/>
<path d="M2074 1970 c-11 -4 -33 -22 -47 -40 -52 -61 -25 -165 50 -196 30 -13
46 -13 103 -3 84 15 125 3 173 -50 51 -56 77 -71 125 -71 38 0 50 6 83 39 35
35 39 44 39 89 0 96 -69 143 -180 121 -80 -15 -127 -2 -171 49 -59 68 -113 87
-175 62z m91 -94 c13 -19 14 -29 6 -45 -25 -45 -91 -33 -91 17 0 54 56 72 85
28z m336 -96 c22 -12 26 -59 7 -78 -19 -19 -55 -14 -72 9 -16 23 -12 47 12 67
19 15 28 15 53 2z"/>
<path d="M1895 1853 l0 -68 47 0 c42 0 45 2 36 19 -6 11 -8 41 -5 68 l6 48
-42 0 -42 0 0 -67z"/>
<path d="M1215 1690 c-10 -11 -26 -22 -36 -25 -17 -6 -15 -10 15 -39 19 -18
38 -44 41 -59 l7 -27 29 24 c15 13 33 26 39 28 7 2 -5 21 -24 41 -20 21 -36
45 -36 52 0 23 -16 26 -35 5z"/>
<path d="M2619 1683 c-6 -16 -24 -43 -42 -60 -17 -18 -26 -33 -20 -33 6 0 25
-11 41 -25 l30 -25 6 25 c3 13 21 39 39 58 l33 33 -38 27 -38 27 -11 -27z"/>
<path d="M1006 1610 c-35 -31 -39 -43 -51 -133 -8 -59 -40 -97 -114 -134 -67
-34 -94 -68 -94 -120 0 -79 52 -133 128 -133 76 0 120 49 131 144 9 75 36 112
109 150 93 49 126 116 90 186 -40 76 -135 96 -199 40z m125 -71 c14 -27 -1
-64 -30 -72 -44 -11 -81 49 -49 81 20 20 66 14 79 -9z m-230 -279 c22 -12 26
-59 7 -78 -19 -19 -55 -14 -72 9 -16 23 -12 47 12 67 19 15 28 15 53 2z"/>
<path d="M2721 1627 c-40 -20 -66 -64 -66 -112 0 -57 27 -93 94 -126 82 -40
99 -63 116 -154 13 -69 20 -84 50 -112 112 -105 278 51 184 171 -12 15 -48 40
-80 57 -71 35 -95 70 -105 148 -8 66 -26 102 -64 125 -33 19 -95 21 -129 3z
m97 -79 c32 -32 -5 -92 -49 -81 -29 8 -44 45 -30 72 13 23 59 29 79 9z m212
-298 c24 -24 25 -43 4 -64 -48 -49 -113 15 -67 66 21 23 38 23 63 -2z"/>
<path d="M10110 1275 l0 -105 25 0 25 0 0 -440 0 -440 105 0 105 0 2 313 3
312 53 -105 c28 -58 62 -122 73 -144 l22 -38 47 98 c26 55 104 217 174 362 69
145 126 269 126 277 0 12 -20 15 -108 15 l-109 0 -64 -135 c-35 -74 -66 -134
-69 -135 -3 0 -36 61 -73 135 l-67 135 -135 0 -135 0 0 -105z"/>
<path d="M10930 1230 l0 -150 99 0 100 0 3 43 3 42 172 3 172 2 3 -42 3 -43
103 -3 103 -3 -3 148 -3 148 -377 3 -378 2 0 -150z"/>
<path d="M11750 1277 l0 -106 154 -3 c147 -3 156 -4 180 -27 62 -59 27 -171
-53 -171 -18 0 -20 7 -23 83 l-3 82 -80 3 c-127 5 -125 6 -125 -88 0 -79 0
-80 -25 -80 l-25 0 0 -105 0 -105 156 0 c175 0 212 -10 245 -64 37 -60 16
-150 -43 -182 -13 -8 -40 -13 -60 -14 l-38 0 0 110 0 110 -105 0 -105 0 0
-109 c0 -106 -1 -110 -22 -113 -22 -3 -23 -8 -26 -106 l-3 -103 193 3 c181 3
196 4 243 28 63 31 133 100 165 165 21 42 25 64 25 140 0 102 -18 153 -75 219
l-33 37 21 37 c11 20 25 63 31 95 26 140 -45 274 -178 336 -52 24 -68 26 -223
29 l-168 4 0 -105z"/>
<path d="M4528 1362 l-168 -2 0 -90 c0 -83 1 -90 20 -90 11 0 20 -6 20 -14 0
-22 -40 -198 -50 -221 -9 -20 -58 -225 -67 -280 -2 -16 -7 -37 -11 -45 -3 -8
-13 -42 -21 -75 -14 -53 -19 -60 -43 -63 l-28 -3 0 -90 0 -90 101 3 102 3 33
140 c18 77 42 178 53 225 12 47 28 117 37 155 14 60 30 121 51 185 9 30 29
-18 42 -102 7 -46 19 -107 28 -136 8 -30 11 -58 7 -62 -5 -5 -29 -10 -54 -12
l-44 -3 -16 -72 c-8 -39 -18 -75 -22 -79 -20 -19 -2 -24 82 -24 85 0 90 -1 94
-22 22 -105 29 -137 38 -165 l10 -33 89 0 90 0 -7 48 c-3 26 -10 52 -14 57 -4
6 -10 28 -13 50 -16 112 -59 352 -67 370 -4 11 -18 83 -31 160 -12 77 -26 144
-31 150 -4 5 -8 20 -9 35 0 14 -8 63 -17 110 l-17 85 -167 -3z"/>
<path d="M5468 1363 l-88 -4 0 -129 0 -129 90 -3 90 -3 0 138 c0 75 -1 136 -2
135 -2 -1 -42 -4 -90 -5z"/>
<path d="M7870 1273 l0 -93 30 0 30 0 0 -440 0 -440 90 0 90 0 2 318 c2 201 7
317 13 316 11 -2 114 -201 115 -221 0 -7 5 -13 10 -13 6 0 10 -6 10 -14 0 -27
20 -28 30 -1 5 14 43 94 84 178 145 298 166 344 166 355 0 7 3 12 8 12 7 0 15
15 47 93 l15 37 -98 0 -99 0 -46 -94 c-26 -52 -47 -100 -47 -105 0 -6 -4 -11
-9 -11 -5 0 -12 -13 -16 -30 -4 -16 -12 -30 -19 -30 -12 0 -136 237 -136 259
0 6 -55 11 -135 13 l-135 3 0 -92z"/>
<path d="M5110 1338 c-54 -31 -81 -59 -101 -106 -17 -40 -19 -73 -19 -400 0
-403 1 -404 77 -473 45 -41 107 -59 198 -59 l55 0 0 90 0 90 -59 0 c-96 0 -91
-19 -91 354 0 237 3 325 12 334 7 7 39 12 75 12 l63 0 0 90 0 90 -87 -1 c-69
0 -95 -5 -123 -21z"/>
<path d="M5810 1270 c0 -89 0 -90 25 -90 14 0 25 -3 25 -6 0 -12 -22 -101 -30
-119 -5 -11 -18 -65 -30 -120 -12 -55 -25 -109 -30 -120 -5 -11 -23 -85 -41
-165 -17 -80 -36 -151 -41 -157 -6 -7 -19 -13 -29 -13 -17 0 -19 -9 -19 -90
l0 -90 94 0 95 0 12 58 c7 31 15 59 19 62 3 3 23 77 43 165 66 283 97 410 102
423 15 39 32 -9 60 -163 9 -49 18 -102 21 -117 6 -28 5 -28 -45 -28 -39 0 -51
-4 -51 -15 0 -8 -4 -23 -9 -33 -10 -17 -31 -102 -31 -121 0 -7 32 -11 85 -11
100 0 95 6 116 -132 l13 -88 94 0 94 0 -6 27 c-3 16 -13 73 -21 128 -9 55 -20
109 -25 120 -5 11 -11 38 -14 60 -9 77 -57 340 -65 355 -4 8 -21 95 -36 193
l-29 177 -173 0 -173 0 0 -90z"/>
<path d="M6440 1270 l0 -90 221 0 c133 0 228 -4 240 -10 18 -10 19 -25 19
-333 0 -177 -4 -328 -9 -335 -4 -8 -27 -16 -50 -19 l-41 -6 0 -90 0 -90 59 6
c32 4 72 12 87 19 38 17 94 68 94 85 0 7 4 13 9 13 25 0 31 76 31 416 0 207
-4 363 -10 379 -5 14 -19 35 -30 47 -11 12 -20 25 -20 29 0 4 -23 21 -50 38
l-50 31 -250 0 -250 0 0 -90z"/>
<path d="M7180 1270 l0 -90 213 -2 212 -3 5 -40 5 -40 88 0 87 0 0 133 0 132
-305 0 -305 0 0 -90z"/>
<path d="M8690 1270 l0 -91 148 3 147 3 3 88 3 87 -151 0 -150 0 0 -90z"/>
<path d="M9240 1270 c0 -90 0 -90 26 -90 19 0 24 -4 21 -17 -3 -10 -15 -63
-27 -118 -12 -55 -26 -109 -30 -120 -5 -11 -18 -65 -30 -120 -12 -55 -25 -109
-30 -120 -5 -11 -17 -56 -26 -100 -20 -89 -28 -105 -55 -105 -17 0 -19 -9 -19
-90 l0 -90 100 0 100 0 0 30 c0 17 4 38 10 48 5 9 19 62 30 117 12 55 25 109
30 120 5 11 23 79 39 150 44 194 55 233 68 246 16 16 18 12 43 -141 11 -69 23
-135 26 -147 4 -21 1 -23 -46 -23 -27 0 -50 -3 -50 -7 0 -5 -9 -45 -19 -90
l-19 -83 88 0 87 0 7 -42 c3 -24 14 -73 23 -110 l17 -68 91 0 91 0 -10 63 c-6
34 -13 64 -16 67 -3 3 -17 73 -32 155 -15 83 -43 233 -62 335 -20 102 -46 241
-59 310 l-23 125 -172 3 -172 2 0 -90z"/>
<path d="M1355 1175 l-200 -104 -162 -186 c-152 -173 -194 -210 -142 -125 66
107 29 207 -79 218 -124 11 -181 -97 -112 -213 36 -61 37 -69 6 -61 -20 5 -81
-30 -323 -186 -164 -106 -308 -204 -320 -218 -17 -19 -22 -38 -23 -77 0 -29 2
-53 4 -53 2 0 119 56 260 125 l257 125 155 -25 c85 -14 160 -25 167 -25 7 0
50 70 97 155 96 176 76 163 203 126 l68 -20 152 229 c84 126 155 230 159 230
3 0 43 -46 87 -101 71 -89 96 -112 201 -183 66 -44 120 -85 120 -91 -1 -5 -24
-36 -53 -67 l-52 -58 -81 21 -81 20 -298 -193 -299 -193 -82 -105 c-46 -57
-82 -106 -80 -107 2 -2 146 67 321 152 l319 156 151 -26 c83 -14 158 -25 166
-25 9 0 47 57 92 138 109 195 87 178 191 149 l87 -25 152 229 c84 126 156 227
161 226 5 -2 46 -48 90 -102 72 -87 98 -111 221 -195 l140 -95 3 -130 3 -130
80 85 79 85 184 -189 184 -190 12 62 c7 34 16 62 20 62 5 0 71 -39 147 -86 76
-48 144 -89 151 -91 8 -4 12 7 12 35 0 37 -17 60 -231 328 l-231 289 -84 28
-84 29 0 44 c0 83 -47 134 -125 134 -44 0 -73 -14 -101 -47 l-22 -25 -178 134
c-99 74 -189 141 -200 148 -19 12 -42 3 -225 -89 -159 -80 -212 -112 -240
-143 l-36 -41 -45 16 c-28 9 -132 80 -267 181 -121 91 -226 166 -233 165 -7 0
-103 -47 -213 -104z m-554 -296 c17 -33 -3 -69 -39 -69 -33 0 -52 16 -52 45 0
29 19 45 52 45 18 0 31 -7 39 -21z m2355 -4 c21 -32 4 -47 -37 -34 -46 16 -55
25 -39 44 17 21 59 15 76 -10z"/>
<path d="M10764 1058 l-99 -203 -3 -282 -3 -283 106 0 105 0 0 485 c0 267 -2
485 -3 485 -2 0 -48 -91 -103 -202z"/>
<path d="M8571 1138 c-15 -35 -45 -97 -65 -140 -20 -42 -36 -81 -36 -87 0 -6
-4 -11 -8 -11 -26 0 -32 -61 -32 -325 l0 -275 90 0 90 0 0 450 c0 248 -2 450
-5 450 -3 0 -19 -28 -34 -62z"/>
<path d="M11210 715 l0 -425 100 0 100 0 -2 423 -3 422 -97 3 -98 3 0 -426z"/>
<path d="M6500 710 l0 -410 130 0 130 0 0 90 0 90 -40 0 -40 0 0 320 0 320
-90 0 -90 0 0 -410z"/>
<path d="M7240 945 l0 -175 210 0 210 0 0 95 0 95 -120 0 -120 0 0 80 0 80
-90 0 -90 0 0 -175z"/>
<path d="M8740 800 l0 -320 -25 0 c-25 0 -25 -1 -25 -90 l0 -90 150 0 150 0 0
89 0 90 -27 3 -28 3 -3 318 -2 317 -95 0 -95 0 0 -320z"/>
<path d="M749 1055 l-17 -45 32 0 c17 0 48 -9 69 -20 34 -19 37 -19 37 -3 0
10 7 30 14 46 14 26 14 27 -12 27 -15 0 -45 9 -67 20 -22 11 -39 20 -40 20 0
0 -7 -20 -16 -45z"/>
<path d="M3060 1079 c-19 -11 -46 -19 -59 -19 -18 0 -22 -4 -16 -17 4 -10 10
-30 13 -45 5 -33 3 -33 44 -8 18 11 47 20 64 20 l32 0 -17 45 c-9 25 -18 44
-21 44 -3 -1 -21 -10 -40 -20z"/>
<path d="M7238 598 l-3 -113 -27 -3 -28 -3 0 -90 0 -89 305 0 305 0 0 135 0
135 -89 0 -90 0 -3 -42 -3 -43 -90 0 -90 0 -3 113 -3 112 -89 0 -89 0 -3 -112z"/>
<path d="M5380 435 l0 -135 90 0 90 0 0 135 0 135 -90 0 -90 0 0 -135z"/>
</g>
</svg>
